<svg width="22" height="24" viewBox="0 0 22 24" fill="none" xmlns="http://www.w3.org/2000/svg">
<path d="M13.3133 4.4541L19.3557 11.2041C19.4496 11.3086 19.5241 11.4328 19.5749 11.5696C19.6257 11.7063 19.6519 11.8529 19.6519 12.001C19.6519 12.149 19.6257 12.2957 19.5749 12.4324C19.5241 12.5691 19.4496 12.6933 19.3557 12.7979L13.3133 19.5479C13.1242 19.7592 12.8676 19.8779 12.6 19.8779C12.3325 19.8779 12.0759 19.7592 11.8867 19.5479C11.6975 19.3365 11.5912 19.0499 11.5912 18.751C11.5912 18.4521 11.6975 18.1654 11.8867 17.9541L16.2095 13.125L3.87302 13.125C3.60594 13.125 3.34979 13.0065 3.16093 12.7955C2.97207 12.5846 2.86597 12.2984 2.86597 12C2.86597 11.7017 2.97207 11.4155 3.16093 11.2045C3.34979 10.9936 3.60594 10.875 3.87302 10.875L16.2095 10.875L11.8858 6.04598C11.6966 5.83463 11.5904 5.54799 11.5904 5.2491C11.5904 4.95022 11.6966 4.66357 11.8858 4.45223C12.075 4.24088 12.3316 4.12215 12.5992 4.12215C12.8667 4.12215 13.1233 4.24088 13.3125 4.45223L13.3133 4.4541Z" fill="black"/>
</svg>
